<?xml version="1.0" encoding="utf-8"?>
<!-- Generator: Adobe Illustrator 17.0.0, SVG Export Plug-In . SVG Version: 6.00 Build 0)  -->
<!DOCTYPE svg PUBLIC "-//W3C//DTD SVG 1.1//EN" "http://www.w3.org/Graphics/SVG/1.1/DTD/svg11.dtd">
<svg version="1.1" id="Capa_1" xmlns="http://www.w3.org/2000/svg" xmlns:xlink="http://www.w3.org/1999/xlink" x="0px" y="0px"
	 width="612px" height="792px" viewBox="0 0 612 792" enable-background="new 0 0 612 792" xml:space="preserve">
<g>
	<path fill="#FFFFFF" stroke="#FFFFFF" stroke-width="10" stroke-miterlimit="10" d="M376.509,243.306
		c20.55,0,40.521,4.059,59.364,12.063c18.202,7.731,34.573,18.795,48.659,32.881s25.149,30.457,32.881,48.659
		c8.004,18.838,12.063,38.809,12.063,59.364v44.767c0,20.55-4.059,40.521-12.063,59.364c-7.731,18.202-18.795,34.573-32.881,48.659
		s-30.457,25.149-48.659,32.881c-18.838,8.004-38.809,12.063-59.364,12.063H229.954c-20.55,0-40.521-4.059-59.364-12.063
		c-18.202-7.731-34.573-18.795-48.659-32.881s-25.149-30.457-32.881-48.659c-8.004-18.838-12.063-38.809-12.063-59.364v-44.767
		c0-20.55,4.059-40.521,12.063-59.364c7.731-18.202,18.795-34.573,32.881-48.659s30.457-25.149,48.659-32.881
		c18.838-8.004,38.809-12.063,59.364-12.063H376.509 M376.509,231.831H229.954c-90.442,0-164.442,73.999-164.442,164.442v44.767
		c0,90.442,73.999,164.441,164.442,164.441h146.55c90.442,0,164.442-73.999,164.442-164.441v-44.767
		C540.946,305.83,466.951,231.831,376.509,231.831L376.509,231.831z"/>
</g>
<g>
	<path fill="#FFFFFF" stroke="#FFFFFF" stroke-width="10" stroke-miterlimit="10" d="M361.166,323.574
		c12.47,0,24.585,2.462,36.008,7.315c11.049,4.695,20.985,11.408,29.534,19.962c8.554,8.554,15.267,18.489,19.962,29.534
		c4.853,11.427,7.315,23.543,7.315,36.008v1.363c0,20.153-6.426,39.354-18.585,55.534c-5.852,7.789-12.852,14.597-20.798,20.234
		c-8.047,5.704-16.863,10.065-26.216,12.957l-6.56,2.027l-1.315,6.737c-1.501,7.698-0.363,22.132,0.889,33.115
		c-5.431-1.344-11.623-3.639-16.381-7.244c-7.382-5.594-12.058-17.815-13.244-22.08l-2.238-8.453h-8.826H241.19
		c-12.469,0-24.585-2.462-36.008-7.315c-11.049-4.695-20.985-11.408-29.534-19.962c-8.549-8.554-15.267-18.489-19.962-29.539
		c-4.853-11.427-7.315-23.543-7.315-36.008v-1.363c0-12.469,2.462-24.585,7.315-36.008c4.695-11.049,11.408-20.985,19.962-29.534
		c8.554-8.554,18.489-15.267,29.534-19.962c11.427-4.853,23.543-7.315,36.008-7.315h119.976 M361.166,312.099H241.19
		c-57.365,0-104.298,46.933-104.298,104.298v1.363c0,57.365,46.933,104.298,104.298,104.298h99.522c0,0,5.13,18.919,17.385,28.205
		c11.427,8.659,27.693,11.145,33.98,11.145c1.511,0,2.448-0.143,2.601-0.378c-0.966-5.737-4.772-33.971-2.897-43.581
		c42.544-13.163,73.679-52.962,73.679-99.684v-1.363C465.459,359.036,418.527,312.099,361.166,312.099L361.166,312.099z"/>
</g>
<line fill="none" stroke="#FFFFFF" stroke-width="28" stroke-miterlimit="10" x1="167.568" y1="244.736" x2="137.198" y2="174.485"/>
<g>
	<path fill="#FFFFFF" stroke="#FFFFFF" stroke-width="10" stroke-miterlimit="10" d="M127.75,138.439c7.832,0,14.2,6.369,14.2,14.2
		c0,7.832-6.369,14.2-14.2,14.2s-14.2-6.369-14.2-14.2C113.55,144.807,119.923,138.439,127.75,138.439 M127.75,126.964
		c-14.181,0-25.675,11.494-25.675,25.675s11.494,25.675,25.675,25.675s25.675-11.494,25.675-25.675S141.931,126.964,127.75,126.964
		L127.75,126.964z"/>
</g>
<line fill="none" stroke="#FFFFFF" stroke-width="28" stroke-miterlimit="10" x1="439.316" y1="244.736" x2="469.619" y2="174.485"/>
<g>
	<path fill="#FFFFFF" stroke="#FFFFFF" stroke-width="10" stroke-miterlimit="10" d="M479.038,138.439
		c7.798,0,14.143,6.369,14.143,14.2c0,7.832-6.345,14.2-14.143,14.2s-14.143-6.369-14.143-14.2
		C464.895,144.807,471.24,138.439,479.038,138.439 M479.038,126.964c-14.148,0-25.618,11.494-25.618,25.675
		s11.47,25.675,25.618,25.675s25.618-11.494,25.618-25.675S493.191,126.964,479.038,126.964L479.038,126.964z"/>
</g>
<path fill="none" stroke="#FFFFFF" stroke-width="10" stroke-linecap="round" stroke-miterlimit="10" d="M137.198,326.074
	c0,0,19.464-36.471,61.047-39.197"/>
<path fill="none" stroke="#FFFFFF" stroke-width="10" stroke-linecap="round" stroke-miterlimit="10" d="M230.628,390.129
	c5.962,4.332,9.845,11.365,9.845,19.302c0,13.168-10.672,23.839-23.839,23.839c-13.168,0-23.839-10.672-23.839-23.839
	c0-7.97,3.911-15.023,9.916-19.354"/>
<line fill="none" stroke="#FFFFFF" stroke-width="10" stroke-linecap="round" stroke-miterlimit="10" x1="216.629" y1="377.884" x2="216.629" y2="392.883"/>
<path fill="none" stroke="#FFFFFF" stroke-width="10" stroke-linecap="round" stroke-miterlimit="10" d="M398.006,390.129
	c5.962,4.332,9.845,11.365,9.845,19.302c0,13.168-10.672,23.839-23.839,23.839s-23.839-10.672-23.839-23.839
	c0-7.97,3.911-15.023,9.916-19.354"/>
<line fill="none" stroke="#FFFFFF" stroke-width="10" stroke-linecap="round" stroke-miterlimit="10" x1="384.006" y1="377.884" x2="384.006" y2="392.883"/>
</svg>
